# xmcd
# 
# Track frame offsets:
#     150
#     17402
#     33865
#     51542
#     70962
#     87605
#     94412
#     122626
#     142727
# 
# Disc length: 2396
# 
# Revision: 1
# Processed by: cddbd v1.5.2PL0 Copyright (c) Steve Scherf et al.
# Submitted via: fre:ac v1.0.27
# 
DISCID=77095a09
DTITLE=Felice Brothers - Life In The Dark
DYEAR=2016
DGENRE=AltCountry
TTITLE0=Aerosol Ball
TTITLE1=Jack At The Asylum
TTITLE2=Life In The Dark
TTITLE3=Triumph '73
TTITLE4=Plunder
TTITLE5=Sally!
TTITLE6=Diamond Bell
TTITLE7=Dancing On The Wing
TTITLE8=Sell The House
EXTD=
EXTT0=
EXTT1=
EXTT2=
EXTT3=
EXTT4=
EXTT5=
EXTT6=
EXTT7=
EXTT8=
PLAYORDER=
